<svg width="1046" height="501" viewBox="0 0 1046 501" fill="none"
    xmlns="http://www.w3.org/2000/svg">
    <path fill-rule="evenodd" clip-rule="evenodd" d="M250.5 0H0V250.5C0 112.153 112.153 0 250.5 0ZM250.5 501C112.153 501 0 388.847 0 250.5V501H250.5ZM795.5 501H250.5C388.847 501 501 388.847 501 250.5C501 112.153 388.847 0 250.5 0H795.5H1046V250.5V501H795.5ZM795.5 501C657.153 501 545 388.847 545 250.5C545 112.153 657.153 0 795.5 0C933.847 0 1046 112.153 1046 250.5C1046 388.847 933.847 501 795.5 501Z" fill="white"/>
</svg>
