<svg width="1590" height="904" viewBox="0 0 1590 904" fill="none" xmlns="http://www.w3.org/2000/svg">
<g clip-path="url(#clip0_91_2)">
<rect width="1590" height="904" transform="matrix(1 0 0 -1 0 904)" fill="white"/>
<rect width="804" height="804" rx="402" transform="matrix(1 0 0 -1 393 855)" fill="black"/>
<rect width="253" height="251" rx="125.5" transform="matrix(1 0 0 -1 1234 578)" fill="black"/>
<rect width="253" height="251" rx="125.5" transform="matrix(1 0 0 -1 1524 578)" fill="black"/>
<rect width="253" height="251" rx="125.5" transform="matrix(1 0 0 -1 103 578)" fill="black"/>
<rect width="253" height="251" rx="125.5" transform="matrix(1 0 0 -1 -187 578)" fill="black"/>
</g>
<defs>
<clipPath id="clip0_91_2">
<rect width="1590" height="904" fill="white" transform="matrix(1 0 0 -1 0 904)"/>
</clipPath>
</defs>
</svg>
